<svg xmlns="http://www.w3.org/2000/svg" width="920" height="520" viewBox="0 0 920 520">
<rect width="100%" height="100%" fill="white"/>
<text x="460.0" y="32" text-anchor="middle" font-size="20" font-family="Arial">Per-Patient Saturation: % MAX Similarity >= Threshold</text>
<line x1="80" y1="450.0" x2="700" y2="450.0" stroke="#dddddd" stroke-width="1"/>
<text x="70" y="454.0" text-anchor="end" font-size="12" font-family="Arial">0</text>
<line x1="80" y1="372.0" x2="700" y2="372.0" stroke="#dddddd" stroke-width="1"/>
<text x="70" y="376.0" text-anchor="end" font-size="12" font-family="Arial">20</text>
<line x1="80" y1="294.0" x2="700" y2="294.0" stroke="#dddddd" stroke-width="1"/>
<text x="70" y="298.0" text-anchor="end" font-size="12" font-family="Arial">40</text>
<line x1="80" y1="216.0" x2="700" y2="216.0" stroke="#dddddd" stroke-width="1"/>
<text x="70" y="220.0" text-anchor="end" font-size="12" font-family="Arial">60</text>
<line x1="80" y1="138.0" x2="700" y2="138.0" stroke="#dddddd" stroke-width="1"/>
<text x="70" y="142.0" text-anchor="end" font-size="12" font-family="Arial">80</text>
<line x1="80" y1="60.0" x2="700" y2="60.0" stroke="#dddddd" stroke-width="1"/>
<text x="70" y="64.0" text-anchor="end" font-size="12" font-family="Arial">100</text>
<line x1="80" y1="450" x2="700" y2="450" stroke="#333333" stroke-width="1.5"/>
<line x1="80" y1="450" x2="80" y2="60" stroke="#333333" stroke-width="1.5"/>
<line x1="80.0" y1="450" x2="80.0" y2="456" stroke="#333333" stroke-width="1"/>
<text x="80.0" y="474" text-anchor="middle" font-size="12" font-family="Arial">0.6</text>
<line x1="235.0" y1="450" x2="235.0" y2="456" stroke="#333333" stroke-width="1"/>
<text x="235.0" y="474" text-anchor="middle" font-size="12" font-family="Arial">0.7</text>
<line x1="390.0" y1="450" x2="390.0" y2="456" stroke="#333333" stroke-width="1"/>
<text x="390.0" y="474" text-anchor="middle" font-size="12" font-family="Arial">0.8</text>
<line x1="545.0" y1="450" x2="545.0" y2="456" stroke="#333333" stroke-width="1"/>
<text x="545.0" y="474" text-anchor="middle" font-size="12" font-family="Arial">0.9</text>
<line x1="700.0" y1="450" x2="700.0" y2="456" stroke="#333333" stroke-width="1"/>
<text x="700.0" y="474" text-anchor="middle" font-size="12" font-family="Arial">1.0</text>
<text x="22" y="255.0" transform="rotate(-90 22 255.0)" text-anchor="middle" font-size="13" font-family="Arial">Percent</text>
<polyline fill="none" stroke="#1f77b4" stroke-width="2.5" points="80.0,60.0 235.0,60.0 390.0,84.1 545.0,404.6 700.0,444.2"/>
<circle cx="80.0" cy="60.0" r="3.5" fill="#1f77b4"/>
<circle cx="235.0" cy="60.0" r="3.5" fill="#1f77b4"/>
<circle cx="390.0" cy="84.1" r="3.5" fill="#1f77b4"/>
<circle cx="545.0" cy="404.6" r="3.5" fill="#1f77b4"/>
<circle cx="700.0" cy="444.2" r="3.5" fill="#1f77b4"/>
<line x1="718" y1="80" x2="742" y2="80" stroke="#1f77b4" stroke-width="3"/>
<text x="750" y="84" font-size="12" font-family="Arial">Bio_ClinicalBERT</text>
<polyline fill="none" stroke="#ff7f0e" stroke-width="2.5" points="80.0,60.0 235.0,60.0 390.0,60.0 545.0,61.1 700.0,443.7"/>
<circle cx="80.0" cy="60.0" r="3.5" fill="#ff7f0e"/>
<circle cx="235.0" cy="60.0" r="3.5" fill="#ff7f0e"/>
<circle cx="390.0" cy="60.0" r="3.5" fill="#ff7f0e"/>
<circle cx="545.0" cy="61.1" r="3.5" fill="#ff7f0e"/>
<circle cx="700.0" cy="443.7" r="3.5" fill="#ff7f0e"/>
<line x1="718" y1="104" x2="742" y2="104" stroke="#ff7f0e" stroke-width="3"/>
<text x="750" y="108" font-size="12" font-family="Arial">BiomedBERT</text>
<polyline fill="none" stroke="#2ca02c" stroke-width="2.5" points="80.0,60.2 235.0,121.8 390.0,376.4 545.0,440.4 700.0,444.9"/>
<circle cx="80.0" cy="60.2" r="3.5" fill="#2ca02c"/>
<circle cx="235.0" cy="121.8" r="3.5" fill="#2ca02c"/>
<circle cx="390.0" cy="376.4" r="3.5" fill="#2ca02c"/>
<circle cx="545.0" cy="440.4" r="3.5" fill="#2ca02c"/>
<circle cx="700.0" cy="444.9" r="3.5" fill="#2ca02c"/>
<line x1="718" y1="128" x2="742" y2="128" stroke="#2ca02c" stroke-width="3"/>
<text x="750" y="132" font-size="12" font-family="Arial">BlueBERT</text>
</svg>